<svg xmlns="http://www.w3.org/2000/svg" width="24" height="24" viewBox="0 0 24 24">
  <path id="share-nodes-solid" d="M24,37.095a5.114,5.114,0,0,1-5.143,5.143,5.062,5.062,0,0,1-3.568-1.393l-5.041,2.518a5.22,5.22,0,0,1-.011.638,4.92,4.92,0,0,1,.011.638l5.041,2.518a5.141,5.141,0,1,1-1.575,3.7,4.537,4.537,0,0,1,.038-.638L8.711,47.7a5.143,5.143,0,1,1,0-7.4l5.041-2.518a5.6,5.6,0,0,1-.038-.637,5.143,5.143,0,1,1,10.286,0ZM5.095,45.666a1.655,1.655,0,0,0,1.714-1.714,1.712,1.712,0,0,0-1.714-1.714A1.779,1.779,0,0,0,3.38,43.952,1.713,1.713,0,0,0,5.095,45.666ZM18.857,35.38a1.744,1.744,0,0,0-1.714,1.714,1.714,1.714,0,1,0,3.429,0A1.744,1.744,0,0,0,18.857,35.38Zm0,17.191a1.714,1.714,0,1,0-1.714-1.714A1.712,1.712,0,0,0,18.857,52.571Z" transform="translate(0 -32)" fill="#ccc"/>
</svg>
